<svg height="512pt" viewBox="0 -3 512.00023 512" width="512pt" xmlns="http://www.w3.org/2000/svg"><path d="m505.183594 230.078125c-.464844-5.03125-3.359375-9.546875-7.746094-12.078125-4.410156-2.542969-9.800781-2.789062-14.414062-.660156l-.109376.050781c-35.6875 16.433594-78.097656.769531-94.53125-34.917969-16.4375-35.6875-.773437-78.09375 34.871094-94.507812.011719-.007813.085938-.039063.097656-.046875 3.5625-1.636719 6.066407-4.914063 6.699219-8.773438.625-3.820312-.6875-7.683593-3.507812-10.335937-34.453125-32.394532-77.265625-54.46875-123.804688-63.832032-47.46875-9.550781-96.402343-5.300781-141.511719 12.289063-34.519531 13.464844-64.929687 33.757813-90.378906 60.324219-24.433594 25.503906-43.023437 55.390625-55.25 88.824218-12.230468 33.4375-17.308594 68.269532-15.09375 103.527344 2.308594 36.71875 12.449219 71.847656 30.144532 104.410156 30.625 56.359376 81.097656 98.632813 142.121093 119.035157 26.214844 8.765625 53.304688 13.121093 80.328125 13.121093 36.160156-.003906 72.199219-7.804687 105.816406-23.289062 48.503907-22.335938 88.011719-58.617188 114.257813-104.925781 25.6875-45.320313 36.753906-96.570313 32.011719-148.214844zm0 0" fill="#ecedef"/><path d="m505.183594 230.078125c-.464844-5.03125-3.359375-9.546875-7.746094-12.078125-4.410156-2.542969-9.800781-2.789062-14.414062-.660156l-.109376.050781c-2.007812.921875-4.042968 1.730469-6.085937 2.457031 2.949219 2.605469 4.855469 6.246094 5.222656 10.226563 4.742188 51.648437-6.324219 102.898437-32.011719 148.21875-26.242187 46.304687-65.753906 82.585937-114.253906 104.925781-30.066406 13.84375-62.066406 21.527344-94.359375 23.003906 3.890625.179688 7.78125.28125 11.671875.28125 36.160156 0 72.199219-7.804687 105.816406-23.285156 48.503907-22.339844 88.011719-58.621094 114.257813-104.925781 25.6875-45.320313 36.753906-96.570313 32.011719-148.214844zm0 0" fill="#d0cfd1"/><path d="m279.601562 4.976562c46.542969 9.363282 89.355469 31.4375 123.808594 63.832032 2.820313 2.652344 4.128906 6.515625 3.503906 10.335937-.628906 3.859375-3.132812 7.140625-6.695312 8.773438-.011719.007812-.085938.039062-.097656.046875-35.644532 16.414062-51.308594 58.820312-34.871094 94.507812 13.703125 29.757813 45.460938 45.574219 76.328125 40.488282-22.550781-3.734376-42.933594-18.207032-53.195313-40.488282-16.4375-35.6875-.773437-78.09375 34.871094-94.507812.011719-.007813.085938-.039063.097656-.046875 3.5625-1.636719 6.066407-4.914063 6.699219-8.773438.625-3.820312-.6875-7.683593-3.507812-10.335937-34.453125-32.394532-77.265625-54.46875-123.804688-63.832032-20.355469-4.097656-40.980469-5.644531-61.457031-4.703124 12.8125.589843 25.617188 2.148437 38.320312 4.703124zm0 0" fill="#d0cfd1"/><path d="m255.546875 78.292969c-2.316406-9.390625-8.148437-17.316407-16.425781-22.316407s-18.007813-6.480468-27.398438-4.164062-17.316406 8.152344-22.316406 16.429688c-5.003906 8.277343-6.480469 18.007812-4.164062 27.394531 2.316406 9.390625 8.152343 17.316406 16.425781 22.316406 5.726562 3.460937 12.140625 5.234375 18.660156 5.234375 2.910156 0 5.839844-.351562 8.738281-1.070312 9.390625-2.316407 17.316406-8.148438 22.316406-16.425782 5.003907-8.277344 6.480469-18.007812 4.164063-27.398437zm0 0" fill="#f9e075"/><path d="m143.800781 153.179688c-2.316406-9.390626-8.152343-17.316407-16.429687-22.320313-17.085938-10.324219-39.386719-4.820313-49.714844 12.265625-5 8.277344-6.476562 18.007812-4.164062 27.398438 2.316406 9.386718 8.152343 17.316406 16.429687 22.316406 5.722656 3.457031 12.140625 5.230468 18.660156 5.230468 2.910157 0 5.839844-.351562 8.738281-1.066406 9.386719-2.316406 17.3125-8.152344 22.316407-16.429687 5-8.277344 6.480469-18.003907 4.164062-27.394531zm0 0" fill="#f9cd45"/><path d="m117.734375 285.148438c-2.316406-9.390626-8.152344-17.316407-16.429687-22.320313-8.277344-5-18.007813-6.480469-27.394532-4.164063-9.390625 2.316407-17.316406 8.152344-22.316406 16.429688-5.003906 8.277344-6.480469 18.007812-4.164062 27.394531 2.316406 9.390625 8.148437 17.316407 16.425781 22.320313 5.722656 3.457031 12.140625 5.230468 18.660156 5.230468 2.910156 0 5.839844-.351562 8.738281-1.066406 9.386719-2.316406 17.316406-8.152344 22.316406-16.429687 5-8.277344 6.480469-18.007813 4.164063-27.394531zm0 0" fill="#f195d6"/><path d="m192.617188 396.894531c-2.316407-9.390625-8.148438-17.316406-16.425782-22.316406-8.28125-5.003906-18.007812-6.480469-27.398437-4.167969-9.390625 2.316406-17.316407 8.152344-22.316407 16.429688-10.328124 17.089844-4.824218 39.390625 12.261719 49.714844 5.726563 3.457031 12.140625 5.234374 18.660157 5.234374 2.910156 0 5.84375-.355468 8.738281-1.070312 9.390625-2.316406 17.316406-8.152344 22.320312-16.429688 5-8.273437 6.476563-18.003906 4.160157-27.394531zm0 0" fill="#ce4a8a"/><path d="m324.585938 422.960938c-2.316407-9.390626-8.152344-17.316407-16.429688-22.316407-8.277344-5.003906-18.007812-6.480469-27.394531-4.167969-19.386719 4.785157-31.265625 24.445313-26.484375 43.828126 2.316406 9.386718 8.152344 17.316406 16.429687 22.316406 5.722657 3.457031 12.140625 5.230468 18.660157 5.230468 2.910156 0 5.839843-.351562 8.738281-1.066406 9.386719-2.316406 17.316406-8.152344 22.316406-16.429687 5-8.277344 6.480469-18.007813 4.164063-27.394531zm0 0" fill="#65cee3"/><path d="m436.332031 348.074219c-2.316406-9.390625-8.148437-17.3125-16.425781-22.316407-8.277344-5.003906-18.007812-6.480468-27.398438-4.164062-9.390624 2.316406-17.316406 8.148438-22.316406 16.425781-5.003906 8.277344-6.480468 18.007813-4.164062 27.398438s8.148437 17.316406 16.425781 22.316406c5.84375 3.53125 12.292969 5.210937 18.667969 5.210937 12.269531 0 24.253906-6.226562 31.046875-17.472656 5.003906-8.277344 6.480469-18.007812 4.164062-27.398437zm0 0" fill="#00bf9e"/><path d="m255.546875 78.292969c-2.316406-9.386719-8.148437-17.316407-16.425781-22.316407s-18.007813-6.480468-27.398438-4.164062c-.976562.242188-1.933594.53125-2.878906.847656 2.464844.835938 4.859375 1.9375 7.140625 3.316406 8.28125 5.003907 14.113281 12.929688 16.429687 22.316407 2.316407 9.390625.835938 19.121093-4.164062 27.398437-4.480469 7.414063-11.308594 12.859375-19.433594 15.582032 3.714844 1.261718 7.59375 1.914062 11.511719 1.914062 2.910156 0 5.839844-.351562 8.738281-1.070312 9.390625-2.316407 17.316406-8.148438 22.316406-16.425782 5.003907-8.277344 6.480469-18.007812 4.164063-27.398437zm0 0" fill="#f9cd45"/><path d="m143.800781 153.179688c-2.316406-9.390626-8.152343-17.316407-16.429687-22.316407-9.460938-5.71875-20.519532-6.574219-30.261719-3.308593 2.441406.828124 4.832031 1.917968 7.128906 3.308593 8.277344 5 14.113281 12.925781 16.429688 22.316407 2.316406 9.386718.835937 19.117187-4.164063 27.394531-4.480468 7.414062-11.3125 12.859375-19.433594 15.582031 3.714844 1.261719 7.59375 1.914062 11.511719 1.914062 2.910157 0 5.839844-.351562 8.738281-1.066406 9.386719-2.316406 17.3125-8.152344 22.316407-16.429687 5-8.277344 6.480469-18.003907 4.164062-27.394531zm0 0" fill="#f8b53c"/><path d="m117.734375 285.148438c-2.316406-9.390626-8.152344-17.316407-16.425781-22.320313-8.277344-5-18.007813-6.476563-27.398438-4.164063-.976562.242188-1.9375.53125-2.882812.847657 2.46875.835937 4.863281 1.9375 7.144531 3.316406 8.277344 5.003906 14.113281 12.929687 16.429687 22.320313 2.316407 9.386718.835938 19.117187-4.164062 27.394531-4.480469 7.414062-11.3125 12.859375-19.433594 15.582031 3.714844 1.261719 7.59375 1.914062 11.511719 1.914062 2.910156 0 5.839844-.351562 8.738281-1.066406 9.386719-2.316406 17.316406-8.152344 22.316406-16.429687 5-8.277344 6.480469-18.007813 4.164063-27.394531zm0 0" fill="#e480be"/><path d="m192.617188 396.894531c-2.316407-9.390625-8.148438-17.316406-16.425782-22.316406-8.277344-5.003906-18.007812-6.480469-27.398437-4.167969-.976563.242188-1.933594.53125-2.878907.847656 2.464844.835938 4.859376 1.9375 7.144532 3.316407 8.273437 5.003906 14.109375 12.929687 16.425781 22.316406 2.316406 9.390625.839844 19.121094-4.164063 27.398437-4.480468 7.414063-11.308593 12.859376-19.433593 15.582032 3.714843 1.261718 7.59375 1.914062 11.511719 1.914062 2.910156 0 5.839843-.351562 8.738281-1.066406 9.390625-2.316406 17.316406-8.152344 22.316406-16.429688 5.003906-8.273437 6.480469-18.003906 4.164063-27.394531zm0 0" fill="#9b3868"/><path d="m324.585938 422.960938c-2.316407-9.390626-8.152344-17.316407-16.429688-22.316407-8.273438-5.003906-18.007812-6.480469-27.394531-4.167969-.980469.242188-1.9375.53125-2.878907.847657 2.464844.839843 4.859376 1.941406 7.140626 3.320312 8.277343 5 14.113281 12.925781 16.429687 22.316407 2.316406 9.386718.835937 19.117187-4.164063 27.394531-4.480468 7.417969-11.3125 12.863281-19.433593 15.582031 3.714843 1.261719 7.59375 1.914062 11.511719 1.914062 2.910156 0 5.839843-.351562 8.738281-1.066406 9.386719-2.316406 17.316406-8.152344 22.316406-16.429687 5-8.277344 6.480469-18.007813 4.164063-27.394531zm0 0" fill="#1bacd6"/><path d="m436.332031 348.074219c-2.316406-9.390625-8.148437-17.3125-16.425781-22.316407-8.277344-5-18.007812-6.480468-27.398438-4.164062-.976562.242188-1.933593.53125-2.878906.847656 2.464844.835938 4.859375 1.9375 7.144532 3.316406 8.277343 5.003907 14.109374 12.925782 16.425781 22.316407 2.316406 9.390625.839843 19.121093-4.164063 27.398437-4.605468 7.625-11.601562 12.933594-19.453125 15.566406 3.773438 1.277344 7.667969 1.90625 11.539063 1.90625 12.269531 0 24.253906-6.226562 31.046875-17.472656 5.003906-8.277344 6.480469-18.007812 4.164062-27.398437zm0 0" fill="#00a983"/><path d="m322.660156 186.023438c-36.15625 28.042968-57.652344 52.757812-51.800781 62.082031 5.847656 9.324219 37.457031.730469 78.4375-19.613281zm0 0" fill="#ecedef"/><path d="m509.847656 98.195312c-6.425781-10.242187-23.457031-9.738281-53.597656 1.597657-25.222656 9.484375-56.453125 25.582031-87.933594 45.328125-31.476562 19.746094-59.5625 40.855468-79.082031 59.4375-23.324219 22.199218-31.191406 37.3125-24.765625 47.554687 3.054688 4.871094 8.511719 7.3125 16.632812 7.3125 8.957032 0 21.15625-2.964843 36.960938-8.90625 25.226562-9.488281 56.453125-25.585937 87.933594-45.332031 31.480468-19.746094 59.566406-40.851562 79.085937-59.433594 23.320313-22.203125 31.191407-37.3125 24.765625-47.558594zm0 0" fill="#ce4a8a"/><path d="m509.847656 98.195312c-4.503906-7.175781-14.21875-9.066406-29.984375-5.667968 2.972657 1.21875 5.242188 3.105468 6.851563 5.667968 6.425781 10.246094-1.445313 25.355469-24.765625 47.558594-19.519531 18.582032-47.609375 39.6875-79.085938 59.433594-31.480469 19.746094-62.710937 35.84375-87.933593 45.332031-9.015626 3.390625-16.855469 5.804688-23.589844 7.261719 2.675781 1.09375 5.917968 1.644531 9.761718 1.644531 8.957032 0 21.15625-2.964843 36.960938-8.90625 25.226562-9.488281 56.453125-25.585937 87.933594-45.332031 31.480468-19.746094 59.566406-40.851562 79.085937-59.433594 23.320313-22.203125 31.191407-37.3125 24.765625-47.558594zm0 0" fill="#9b3868"/><path d="m274.570312 246.460938c-11.492187-18.320313-35.75-23.878907-54.070312-12.386719-16.058594 10.074219-34.917969 54.4375-38.535156 63.226562-.925782 2.253907-.707032 4.816407.585937 6.878907 1.296875 2.066406 3.507813 3.375 5.9375 3.523437 3.421875.203125 11.863281.636719 22.015625.636719 18.011719 0 41.410156-1.367188 51.679688-7.808594 18.324218-11.492188 23.878906-35.75 12.386718-54.070312zm0 0" fill="#ff9f4d"/><path d="m274.570312 246.460938c-9.644531-15.375-28.269531-21.753907-44.839843-16.621094 8.691406 2.667968 16.507812 8.332031 21.707031 16.621094 11.492188 18.320312 5.9375 42.578124-12.386719 54.070312-8.238281 5.167969-24.925781 7.070312-40.503906 7.621094 3.484375.109375 7.558594.1875 11.957031.1875 18.011719 0 41.410156-1.367188 51.679688-7.808594 18.324218-11.492188 23.878906-35.75 12.386718-54.070312zm0 0" fill="#fb900d"/><path d="m345.621094 229.539062c-2.515625 0-4.972656-1.253906-6.402344-3.542968l-18.6875-29.460938c-2.210938-3.53125-1.136719-8.1875 2.394531-10.394531 3.53125-2.210937 8.1875-1.136719 10.394531 2.394531l18.6875 29.460938c2.210938 3.53125 1.136719 8.1875-2.394531 10.394531-1.242187.777344-2.628906 1.148437-3.992187 1.148437zm0 0" fill="#ecedef"/></svg>